<svg width="170" height="170" viewBox="0 0 170 170" fill="none" xmlns="http://www.w3.org/2000/svg">
<g id="system-uicons:ticket" clip-path="url(#clip0_15_452)">
<path id="Vector" d="M84.8528 52.5279L88.8934 56.5685M96.9746 64.6497L101.015 68.6903M109.096 76.7716L113.137 80.8122M56.5685 80.8122L60.6092 84.8528M68.6904 92.934L72.731 96.9746M80.8122 105.056L84.8528 109.096M107.133 42.3698L107.076 42.4264C104.933 44.5697 103.729 47.4766 103.729 50.5076C103.729 53.5386 104.933 56.4455 107.076 58.5888C109.219 60.7321 112.126 61.9362 115.157 61.9362C118.188 61.9362 121.095 60.7321 123.239 58.5888L123.295 58.5242L133.401 68.6297C134.472 69.7014 135.074 71.1548 135.074 72.6703C135.074 74.1859 134.472 75.6393 133.401 76.711L80.8122 129.299C79.7406 130.371 78.2871 130.973 76.7716 130.973C75.2561 130.973 73.8026 130.371 72.731 129.299L62.6295 119.198C64.7727 117.055 65.9768 114.148 65.9768 111.117C65.9768 108.086 64.7727 105.179 62.6295 103.036C60.4862 100.892 57.5793 99.6882 54.5482 99.6882C51.5172 99.6882 48.6103 100.892 46.467 103.036L36.3655 92.934C35.2939 91.8624 34.6918 90.4089 34.6918 88.8934C34.6918 87.3779 35.2939 85.9244 36.3655 84.8528L88.954 32.2642C90.0257 31.1926 91.4791 30.5906 92.9946 30.5906C94.5102 30.5906 95.9636 31.1926 97.0353 32.2642L107.133 42.3698Z" stroke="#FDEB05" stroke-width="5.71429" stroke-linecap="round" stroke-linejoin="round"/>
</g>
<defs>
<clipPath id="clip0_15_452">
<rect width="120" height="120" fill="white" transform="translate(84.8528) rotate(45)"/>
</clipPath>
</defs>
</svg>
