<svg width="320" height="360" viewBox="0 0 466 530" xmlns="http://www.w3.org/2000/svg"><path fill="#e2574c" d="M22.06 7.09c5.06-3.18 10.97-4.9 16.93-5.05 90.68-.12 181.36.03 272.03-.07-.03 37.01-.05 74.03 0 111.05-.54 16.33 12.63 31.44 29.04 32.87 38.27.3 76.56-.04 114.84.15l.28 2.68c.01.76.01 2.28.01 3.04-.54 111.66.11 223.34-.32 335.01-1.41 4.44-3.14 8.76-4.9 13.08-6.84 8.76-17.61 14.83-28.95 14.16-126.68-.02-253.36-.02-380.04 0-6.28.47-12.28-1.76-17.96-4.13-2.21-1.83-4.49-3.59-7-4.97-.91-2.01-2.26-3.75-3.98-5.12-1.8-4.28-3.51-8.59-4.9-13.02-.3-151.94-.1-303.88-.1-455.82 1.64-9.51 6.31-19.03 15.02-23.86m104.95 218.92l-.03.97c-3.94-.5-7.5 3.06-7 7l-.97.03c-.02 26.66-.02 53.32 0 79.98l.96.02c-.59 7.87 11.59 10.46 15.74 4.71 4.77-8.8 1.19-19.27 2.3-28.74 5.99.15 11.99.01 17.99.01v-.97c20.27-.62 32.52-25.18 24.94-42.98-3.82-10.31-13.63-18.73-24.92-19.06l-.05-.94c-9.65-.18-19.31-.01-28.96-.03m80 0l-.02.97c-3.71-.57-7.15 3.49-7.01 6.99l-.96.05c-.04 26.99-.04 53.98 0 80.97l.97.02c.19 3.22 3.98 5.63 6.99 6l.04.97c10.32.07 20.65.04 30.98.01v-.97c10.67-.11 21.31-4.56 28.81-12.22 17.52-19.3 16.02-51.52-.91-70.71-8.23-6.39-18.23-11.47-28.9-11.1v-.97c-10-.06-20-.06-29.99-.01m96 0l-.02.97c-3.71-.57-7.15 3.49-7.01 6.99l-.97.04c-.02 26.66-.02 53.32 0 79.98l.96.02c-.48 5.59 6.3 10.19 11.38 7.4 3.36-1.46 5.36-4.83 5.62-8.4.21-7.33-.13-14.66.06-21.97 6.88-.2 13.79.23 20.67-.32 3.08-1.36 6.04-4.2 6.32-7.7 1.3-4.94-2.89-10.47-8-10.04l-.05-.94c-6.32-.2-12.65-.04-18.96-.03-.05-9.01-.05-18.02 0-27.03 7.65.13 15.32.01 22.98.01l.02-.96c8.94.07 9.46-15.73 1.01-17.04l-.05-.94c-11.32-.19-22.65-.01-33.96-.04z"/><path fill="#b53629" d="M311.02 1.97c25.99 24.88 51.01 50.98 76.75 76.21 21.58 21.76 43.31 43.39 65.01 65.05.74.89 1.8 1.63 2.12 2.81-38.28-.19-76.57.15-114.84-.15-16.41-1.43-29.58-16.54-29.04-32.87-.05-37.02-.03-74.04 0-111.05z"/><path opacity=".06" d="M455.18 148.72c2.03.67 2.67 2.88 3.49 4.63.64 8.2.25 16.43.34 24.65-.06 103.33.08 206.67-.07 310 .39 17.73-14.36 33.56-31.94 34.93-128.33.12-256.67.1-385 .01-19.07.45-36.78-16.78-34.86-36.17 1.39 4.43 3.1 8.74 4.9 13.02.28 6.34 5.5 10.43 9.72 14.47 7 5.78 16.46 7.03 25.23 6.77 126.67-.11 253.34.08 380.01-.1 16.7-1.31 31.2-16.94 30.01-33.91-.03-110.34.01-220.69-.02-331.03.03-1.61-1.11-2.88-1.8-4.23 0-.76 0-2.28-.01-3.04z"/><path opacity=".09" d="M455.19 151.76c.69 1.35 1.83 2.62 1.8 4.23.03 110.34-.01 220.69.02 331.03 1.19 16.97-13.31 32.6-30.01 33.91-126.67.18-253.34-.01-380.01.1-8.77.26-18.23-.99-25.23-6.77-4.22-4.04-9.44-8.13-9.72-14.47 1.72 1.37 3.07 3.11 3.98 5.12 1.23 3.75 4.58 6.11 7.2 8.87 9.08 6.94 21.12 5.08 31.77 6.22H340c28.66-.52 57.41 1.05 86.03-.81 16.45.03 31.19-15.86 28.84-32.42.43-111.67-.22-223.35.32-335.01z"/><path fill="#f9d7d5" d="M127.01 226.01c9.65.02 19.31-.15 28.96.03l.05.94c-9.68.02-19.36.05-29.04 0l.03-.97z"/><path fill="#f8d6d4" d="M207.01 226.01c9.99-.05 19.99-.05 29.99.01v.97c-10.01.01-20.01.04-30.01-.01l.02-.97z"/><g fill="#f9dcda"><path d="M303.01 226.01c11.31.03 22.64-.15 33.96.04l.05.94c-11.35-.01-22.69.05-34.03-.01l.02-.97zM219.03 303.01l.98-.03c4.66.02 9.31-.01 13.99.05v.96c-3.75 0-11.26-.01-15.02-.01l.05-.97z"/></g><g fill="#fffefe"><path d="M119.98 233.98c-.5-3.94 3.06-7.5 7-7 9.68.05 19.36.02 29.04 0 11.29.33 21.1 8.75 24.92 19.06 7.58 17.8-4.67 42.36-24.94 42.98-5.98.01-11.97-.21-17.94.02l-.05.94c-1.11 9.47 2.47 19.94-2.3 28.74-4.15 5.75-16.33 3.16-15.74-4.71.04-26.67.05-53.35.01-80.03m18.01 9.05l.06.98c-.15 9.32-.07 18.65-.02 27.98 1.25 3.1 8.92-.18 11.97 1.01v-.97c7.81.63 15.08-7.18 13.02-15.03.85-6.65-5.17-13.6-12.01-13.03l-.04-.93c-4.32-.2-8.66-.05-12.98-.01zM199.98 233.97c-.14-3.5 3.3-7.56 7.01-6.99 10 .05 20 .02 30.01.01 10.67-.37 20.67 4.71 28.9 11.1 16.93 19.19 18.43 51.41.91 70.71-7.5 7.66-18.14 12.11-28.81 12.22-10.34-.06-20.68-.01-31.02-.01-3.01-.37-6.8-2.78-6.99-6 0-27.01.04-54.03-.01-81.04m19 10.06l.06.96c-.09 19.34-.06 38.68-.01 58.02l-.05.97c3.76 0 11.27.01 15.02.01v-.96c8.71.11 17.38-4.94 20.98-13.03 4.04-9.03 4.04-19.7 1.04-29.01-2.94-9.72-12.95-16.41-23.01-16l-.04-.94c-4.66-.2-9.34-.06-13.99-.02zM295.98 233.97c-.14-3.5 3.3-7.56 7.01-6.99 11.34.06 22.68 0 34.03.01 8.45 1.31 7.93 17.11-1.01 17.04-7.65.02-15.31-.22-22.95.01l-.05.94c-.05 9.01-.05 18.02 0 27.03l.05.96c6.31.11 12.64.06 18.96.01 5.11-.43 9.3 5.1 8 10.04-.28 3.5-3.24 6.34-6.32 7.7-6.88.55-13.79.12-20.67.32-.19 7.31.15 14.64-.06 21.97-.26 3.57-2.26 6.94-5.62 8.4-5.08 2.79-11.86-1.81-11.38-7.4.04-26.68.05-53.36.01-80.04z"/></g><g fill="#fbe3e2"><path d="M119.01 234.01l.97-.03c.04 26.68.03 53.36-.01 80.03l-.96-.02c-.02-26.66-.02-53.32 0-79.98zM295.01 234.01l.97-.04c.04 26.68.03 53.36-.01 80.04l-.96-.02c-.02-26.66-.02-53.32 0-79.98z"/></g><path fill="#fdf3f3" d="M199.02 234.02l.96-.05c.05 27.01.01 54.03.01 81.04l-.97-.02c-.04-26.99-.04-53.98 0-80.97z"/><path fill="#fae1df" d="M137.99 243.03c4.32-.04 8.66-.19 12.98.01l.04.93c-4.33.03-8.64.03-12.96.04l-.06-.98z"/><g fill="#e2584d"><path d="M138.05 244.01c4.32-.01 8.63-.01 12.96-.04 6.84-.57 12.86 6.38 12.01 13.03 2.06 7.85-5.21 15.66-13.02 15.03-3.99-.03-7.98-.04-11.97-.04-.05-9.33-.13-18.66.02-27.98zM220.01 245.02c4.33-.03 8.66-.03 13-.03 10.06-.41 20.07 6.28 23.01 16 3 9.31 3 19.98-1.04 29.01-3.6 8.09-12.27 13.14-20.98 13.03-4.68-.06-9.33-.03-13.99-.05-.01-19.32-.02-38.64 0-57.96z"/></g><path fill="#f7d2cf" d="M218.98 244.03c4.65-.04 9.33-.18 13.99.02l.04.94c-4.34 0-8.67 0-13 .03l-.97-.03-.06-.96z"/><path fill="#f4bab6" d="M313.06 244.04c7.64-.23 15.3.01 22.95-.01l-.02.96c-7.66 0-15.33.12-22.98-.01l.05-.94z"/><path fill="#e98179" d="M219.04 244.99l.97.03c-.02 19.32-.01 38.64 0 57.96l-.98.03c-.05-19.34-.08-38.68.01-58.02z"/><path fill="#fbebe9" d="M138.03 271.99c3.99 0 7.98.01 11.97.04v.97c-3.05-1.19-10.72 2.09-11.97-1.01z"/><path fill="#ee9c96" d="M313.01 272.01c6.31-.01 12.64-.17 18.96.03l.05.94c-6.32.05-12.65.1-18.96-.01l-.05-.96z"/><path fill="#f6c8c5" d="M138.06 289.04c5.97-.23 11.96-.01 17.94-.02v.97c-6 0-12 .14-17.99-.01l.05-.94z"/><path fill="#f7cdca" d="M206.98 321.01c10.34 0 20.68-.05 31.02.01v.97c-10.33.03-20.66.06-30.98-.01l-.04-.97z"/><path fill="#010000" opacity=".12" d="M449.97 499.85c1.76-4.32 3.49-8.64 4.9-13.08 2.35 16.56-12.39 32.45-28.84 32.42-28.62 1.86-57.37.29-86.03.81H54.99c-10.65-1.14-22.69.72-31.77-6.22-2.62-2.76-5.97-5.12-7.2-8.87 2.51 1.38 4.79 3.14 7 4.97 4.73 6.21 13.66 7.59 20.98 8.06 126.67.14 253.35.03 380.02.05 7.59-.74 15.6-3.32 20.8-9.17 2.44-2.46 5.44-5.19 5.15-8.97z"/><path fill="#010000" opacity=".16" d="M421.02 514.01c11.34.67 22.11-5.4 28.95-14.16.29 3.78-2.71 6.51-5.15 8.97-5.2 5.85-13.21 8.43-20.8 9.17-126.67-.02-253.35.09-380.02-.05-7.32-.47-16.25-1.85-20.98-8.06 5.68 2.37 11.68 4.6 17.96 4.13 126.68-.02 253.36-.02 380.04 0z"/></svg>